HIERARCHY
ROOT Hips
{
	OFFSET 0.000000 0.000000 0.000000
	CHANNELS 6 Xposition Yposition Zposition Xrotation Yrotation Zrotation
	JOINT LeftUpLeg_virtual
	{
		OFFSET 0.000000 0.000000 0.000000
		CHANNELS 3 Xrotation Yrotation Zrotation
		JOINT LeftUpLeg
		{
			OFFSET 13.026900 -6.336304 -1.092800
			CHANNELS 3 Xrotation Yrotation Zrotation
			JOINT LeftLeg
			{
				OFFSET 0.524474 -46.096886 9.782700
				CHANNELS 3 Xrotation Yrotation Zrotation
				JOINT LeftFoot
				{
					OFFSET -0.524474 -53.427422 -12.948200
					CHANNELS 3 Xrotation Yrotation Zrotation
					JOINT LeftToeBase
					{
						OFFSET 0.192200 -14.009700 16.364100
						CHANNELS 3 Xrotation Yrotation Zrotation
						JOINT LeftToe_End
						{
							OFFSET -1.784700 -0.561700 9.474800
							CHANNELS 3 Xrotation Yrotation Zrotation
							End Site
							{
								OFFSET 0 0 0
							}
						}
					}
				}
			}
		}
	}
	JOINT RightUpLeg_virtual
	{
		OFFSET 0.000000 0.000000 0.000000
		CHANNELS 3 Xrotation Yrotation Zrotation
		JOINT RightUpLeg
		{
			OFFSET -12.883000 -6.336304 -1.092800
			CHANNELS 3 Xrotation Yrotation Zrotation
			JOINT RightLeg
			{
				OFFSET -0.524587 -46.096825 9.782800
				CHANNELS 3 Xrotation Yrotation Zrotation
				JOINT RightFoot
				{
					OFFSET 0.524587 -53.427383 -12.948300
					CHANNELS 3 Xrotation Yrotation Zrotation
					JOINT RightToeBase
					{
						OFFSET -0.192200 -14.009700 16.364100
						CHANNELS 3 Xrotation Yrotation Zrotation
						JOINT RightToe_End
						{
							OFFSET 1.784700 -0.561700 9.474800
							CHANNELS 3 Xrotation Yrotation Zrotation
							End Site
							{
								OFFSET 0 0 0
							}
						}
					}
				}
			}
		}
	}
	JOINT Spine_virtual
	{
		OFFSET 0.000000 0.000000 0.000000
		CHANNELS 3 Xrotation Yrotation Zrotation
		JOINT Spine
		{
			OFFSET 0.072000 7.257294 -0.789700
			CHANNELS 3 Xrotation Yrotation Zrotation
			JOINT Spine1
			{
				OFFSET 0.000000 12.508769 -0.658067
				CHANNELS 3 Xrotation Yrotation Zrotation
				JOINT Spine1_split
				{
					OFFSET 0.000000 12.508769 -0.658067
					CHANNELS 3 Xrotation Yrotation Zrotation
					JOINT Spine2
					{
						OFFSET 0.000000 12.508769 -0.658067
						CHANNELS 3 Xrotation Yrotation Zrotation
						JOINT Neck_virtual
						{
							OFFSET 0.000000 0.000000 0.000000
							CHANNELS 3 Xrotation Yrotation Zrotation
							JOINT Neck
							{
								OFFSET 0.000000 14.033295 7.520400
								CHANNELS 3 Xrotation Yrotation Zrotation
								JOINT Head
								{
									OFFSET 0.000000 8.198502 5.703100
									CHANNELS 3 Xrotation Yrotation Zrotation
									JOINT HeadTop_End
									{
										OFFSET 0.000000 17.760803 13.332701
										CHANNELS 3 Xrotation Yrotation Zrotation
										End Site
										{
											OFFSET 0 0 0
										}
									}
								}
							}
						}
						JOINT LeftShoulder_virtual
						{
							OFFSET 0.000000 0.000000 0.000000
							CHANNELS 3 Xrotation Yrotation Zrotation
							JOINT LeftShoulder
							{
								OFFSET 6.292450 5.785301 -0.669000
								CHANNELS 3 Xrotation Yrotation Zrotation
								JOINT LeftShoulder_split
								{
									OFFSET 6.292450 5.785301 -0.669000
									CHANNELS 3 Xrotation Yrotation Zrotation
									JOINT LeftArm
									{
										OFFSET 13.907140 -6.093903 1.965100
										CHANNELS 3 Xrotation Yrotation Zrotation
										JOINT LeftForeArm
										{
											OFFSET 34.140198 0.000000 0.000000
											CHANNELS 3 Xrotation Yrotation Zrotation
											JOINT LeftHand
											{
												OFFSET 40.960209 0.000000 0.000000
												CHANNELS 3 Xrotation Yrotation Zrotation
												End Site
												{
													OFFSET 0 0 0
												}
											}
										}
									}
								}
							}
						}
						JOINT RightShoulder_virtual
						{
							OFFSET 0.000000 0.000000 0.000000
							CHANNELS 3 Xrotation Yrotation Zrotation
							JOINT RightShoulder
							{
								OFFSET -6.292450 5.785301 -0.669000
								CHANNELS 3 Xrotation Yrotation Zrotation
								JOINT RightShoulder_split
								{
									OFFSET -6.292450 5.785301 -0.669000
									CHANNELS 3 Xrotation Yrotation Zrotation
									JOINT RightArm
									{
										OFFSET -13.907140 -6.093903 1.965100
										CHANNELS 3 Xrotation Yrotation Zrotation
										JOINT RightForeArm
										{
											OFFSET -34.140198 0.000000 0.000000
											CHANNELS 3 Xrotation Yrotation Zrotation
											JOINT RightHand
											{
												OFFSET -40.960209 0.000000 0.000000
												CHANNELS 3 Xrotation Yrotation Zrotation
												End Site
												{
													OFFSET 0 0 0
												}
											}
										}
									}
								}
							}
						}
					}
				}
			}
		}
	}
}
MOTION
Frames: 7
Frame Time: 0.03333333
36.965500 43.194004 462.169250 0.000000 0.000000 0.000000 47.737582 -51.978125 74.458973 -58.942128 -0.768411 19.105195 43.829443 -14.756523 7.666760 1.416831 5.279801 -16.258637 1.855967 -2.461765 3.188185 0.000000 0.000000 0.000000 48.407764 -55.204280 77.160360 -91.636434 -5.003795 -8.695189 120.880797 5.775121 -2.024353 21.739311 4.934444 28.158232 4.170821 -6.459648 -35.812072 0.000000 0.000000 0.000000 64.785820 -49.697939 85.087929 24.784475 -4.071827 0.557687 10.003944 -11.504092 -4.100052 0.474740 0.440254 0.035393 0.000000 0.000000 0.000000 10.125527 -11.114386 -2.985492 -0.931978 12.434902 12.700435 58.543232 75.035201 -27.104873 0.000000 0.000000 0.000000 11.634435 -11.505419 -2.726554 0.146241 -4.147370 -19.128566 0.955799 -3.012502 -2.273742 6.860507 -17.493831 -47.573883 28.781362 -4.473156 -17.309499 0.000000 0.000000 0.000000 14.057185 -13.831937 -8.039754 15.172866 27.294945 -3.800709 -17.963729 -4.502285 9.924046 -42.137390 -0.737905 -8.004567 -21.134581 26.539347 16.486752 0.000000 0.000000 0.000000 
35.538105 42.404430 477.076935 0.000000 0.000000 0.000000 46.325471 -50.028755 70.632304 -66.552701 -3.050777 22.100358 47.562681 -15.606625 8.714066 5.614596 0.725023 -24.529789 -0.944154 -2.919989 4.822193 0.000000 0.000000 0.000000 43.713853 -53.557538 70.892412 -94.165489 -2.081884 -13.551535 123.856615 10.387454 -9.041417 24.001280 6.597071 32.436917 -0.453240 -5.190401 -36.499827 0.000000 0.000000 0.000000 59.782392 -50.180106 78.796662 24.704972 -2.437855 -0.327616 10.252391 -9.452885 -3.225283 0.209049 0.427811 0.032668 0.000000 0.000000 0.000000 8.997990 -9.286119 -2.471750 1.804048 10.123685 10.979538 40.612694 63.882534 -12.651384 0.000000 0.000000 0.000000 10.649990 -9.666874 -2.633148 0.035648 -6.901004 -18.713651 1.437416 -1.758430 -1.679647 9.564506 -16.455505 -47.283016 28.319117 -4.560374 -18.598402 0.000000 0.000000 0.000000 13.282193 -11.631268 -7.103412 13.929685 26.955762 -2.801811 -16.328184 -1.471255 8.583708 -43.728869 -5.153131 -5.987703 -21.938803 26.302676 14.426761 0.000000 0.000000 0.000000 
34.103508 42.135803 491.453888 0.000000 0.000000 0.000000 44.364124 -48.038063 65.972524 -75.633212 -2.817758 24.817540 51.108803 -12.899141 7.630379 11.720399 -1.417468 -26.667022 -2.052377 -3.249984 5.777146 0.000000 0.000000 0.000000 40.702675 -51.938152 65.204879 -92.489948 -0.044207 -17.954614 125.598928 13.140918 -14.338218 27.088274 5.521276 35.949055 -4.918088 -3.708922 -36.314849 0.000000 0.000000 0.000000 53.981242 -50.251997 71.581974 24.241668 -0.831119 -1.699732 9.861292 -7.352785 -2.671211 0.056879 0.348977 -0.058374 0.000000 0.000000 0.000000 7.175163 -7.450571 -2.367766 3.298910 7.800698 9.762049 32.176290 49.693564 -7.520305 0.000000 0.000000 0.000000 9.030496 -7.928317 -3.120707 0.040393 -8.425615 -17.620484 1.558307 -1.831692 -1.319777 13.808088 -14.919315 -43.518502 27.582256 -3.779603 -19.446829 0.000000 0.000000 0.000000 12.030526 -9.113156 -6.176689 12.023750 24.956881 -1.322078 -14.867826 1.011875 6.910943 -42.944961 -13.087094 0.157065 -23.276141 29.545677 13.361280 0.000000 0.000000 0.000000 
32.488358 42.111149 505.171478 0.000000 0.000000 0.000000 41.541859 -46.722155 60.082517 -86.462436 -1.056280 27.818901 55.912533 -8.021212 4.997290 20.187862 -1.351570 -24.770975 -1.150410 -3.268866 5.836077 0.000000 0.000000 0.000000 37.815182 -50.838553 58.828959 -84.807768 -1.122158 -22.097940 125.570064 14.104510 -17.341084 28.079992 0.706385 37.050153 -7.575890 -2.294538 -35.623371 0.000000 0.000000 0.000000 47.783102 -50.219458 63.817237 23.346138 0.677361 -3.388714 9.120447 -5.547570 -2.409882 -0.066511 0.321718 -0.096988 0.000000 0.000000 0.000000 5.331366 -5.792996 -2.599063 3.489585 5.581266 8.966859 26.873096 35.271295 -5.870296 0.000000 0.000000 0.000000 7.149886 -6.472911 -3.965821 0.190740 -8.327857 -15.877912 1.655682 -2.347414 -1.514639 18.459228 -11.448531 -36.353153 26.392442 -3.392676 -19.681620 0.000000 0.000000 0.000000 10.668074 -6.716133 -5.328063 9.941088 21.581975 0.242830 -13.499870 2.297272 5.955681 -36.920540 -23.296829 11.585912 -25.617977 36.706601 14.144477 0.000000 0.000000 0.000000 
30.870722 42.437717 517.912842 0.000000 0.000000 0.000000 38.754623 -46.906287 53.965010 -98.459028 0.759412 31.139078 63.066265 -3.101464 1.465414 30.159076 -0.494120 -21.785407 -0.221646 -3.074451 5.144795 0.000000 0.000000 0.000000 35.312870 -50.444874 52.147630 -71.469228 -6.951953 -25.538726 122.872385 14.187183 -18.589714 26.264579 -5.660936 38.091709 -11.075295 0.086004 -35.448883 0.000000 0.000000 0.000000 41.561083 -50.084688 55.495072 22.000666 2.051332 -5.097715 8.383943 -4.213177 -2.397833 -0.063293 0.361859 -0.116559 0.000000 0.000000 0.000000 4.116260 -4.489839 -2.990704 2.407566 3.640016 8.528081 21.950107 23.225239 -6.112717 0.000000 0.000000 0.000000 5.279262 -5.330065 -4.869187 0.407465 -6.727987 -13.701554 2.158063 -2.827233 -2.358256 21.615915 -5.185901 -27.029376 24.293800 -4.505860 -19.316028 0.000000 0.000000 0.000000 9.424251 -4.850462 -4.625508 8.075253 17.732612 1.501433 -12.353030 2.193402 5.497634 -23.955335 -31.846819 28.894439 -29.859767 46.627041 17.774947 0.000000 0.000000 0.000000 
29.487024 42.976616 529.860840 0.000000 0.000000 0.000000 35.477283 -48.598592 47.356256 -109.140727 2.726404 33.961405 71.360894 0.907408 -2.220587 38.082181 1.173507 -18.084061 -1.915968 -2.906509 4.284742 0.000000 0.000000 0.000000 32.957524 -50.871860 45.517251 -55.979715 -16.923614 -26.881859 117.515085 14.586038 -19.249913 23.921682 -9.103815 42.313343 -16.903047 3.990698 -36.188736 0.000000 0.000000 0.000000 35.418591 -49.750651 46.749134 20.376355 3.201870 -6.492697 8.017645 -3.452658 -2.567126 0.012675 0.300193 -0.109185 0.000000 0.000000 0.000000 3.799856 -3.644481 -3.436871 0.188545 2.060027 8.450931 15.962408 13.709622 -7.538686 0.000000 0.000000 0.000000 3.731202 -4.647730 -5.649159 0.617394 -4.315810 -11.348391 2.213644 -2.824595 -3.242847 21.019702 2.873469 -17.078939 21.150948 -6.803483 -18.448799 0.000000 0.000000 0.000000 8.383729 -3.715065 -4.130597 6.587771 14.438096 2.184470 -11.925728 1.391577 5.588093 -6.732845 -34.110497 48.620883 -37.652681 57.175722 25.910169 0.000000 0.000000 0.000000 
28.338308 44.350754 541.442383 0.000000 0.000000 0.000000 32.507654 -51.241869 40.927955 -116.706035 5.327060 35.221564 79.709079 4.167414 -5.176663 39.481898 4.269842 -12.812238 -5.695418 -2.704154 3.335802 0.000000 0.000000 0.000000 30.549093 -51.632453 39.120400 -41.257034 -27.793730 -24.842195 108.451198 16.716702 -20.118560 21.175668 -7.948411 49.411156 -22.914455 8.552567 -37.114186 0.000000 0.000000 0.000000 29.997112 -48.662636 37.871753 18.588896 3.971488 -7.476048 8.223453 -3.346451 -2.844744 0.030878 0.216721 -0.057509 0.000000 0.000000 0.000000 4.375603 -3.272124 -3.817443 -2.813838 0.993783 8.872071 8.659592 6.533860 -9.849432 0.000000 0.000000 0.000000 2.733834 -4.423447 -6.199276 0.745532 -2.351555 -9.272465 2.820298 -1.858901 -3.106724 16.101399 8.969399 -7.660412 17.342047 -9.154323 -17.241347 0.000000 0.000000 0.000000 7.717082 -3.314651 -3.922204 5.406715 12.269200 2.262678 -11.770824 0.474349 5.753236 6.728993 -29.740433 62.650190 -51.792116 65.657461 41.062756 0.000000 0.000000 0.000000 
